<svg width="167" height="22" viewBox="0 0 167 22" fill="none" xmlns="http://www.w3.org/2000/svg">
<path d="M35.746 16V3.4H37.96V9.376L42.928 3.4H45.592L40.408 9.268L45.916 16H43.108L37.96 9.502V16H35.746ZM52.8618 16V12.904H49.3158V16H47.2458V7.9H49.3158V10.96H52.8618V7.9H54.9318V16H52.8618ZM59.3001 16H57.2301V7.9H59.3001V13.03L63.0801 7.9H65.1501V16H63.0801V10.87L59.3001 16ZM67.4606 16V7.9H72.8966V9.844H69.5306V16H67.4606ZM74.823 9.988L74.301 8.476C75.177 7.96 76.131 7.702 77.163 7.702C78.315 7.702 79.143 7.984 79.647 8.548C80.151 9.112 80.403 9.952 80.403 11.068V16H78.603V15.064C78.111 15.76 77.313 16.108 76.209 16.108C75.453 16.108 74.841 15.886 74.373 15.442C73.905 14.998 73.671 14.392 73.671 13.624C73.671 12.772 73.947 12.124 74.499 11.68C75.051 11.224 75.759 10.996 76.623 10.996C77.367 10.996 77.979 11.17 78.459 11.518C78.483 10.81 78.381 10.288 78.153 9.952C77.925 9.604 77.523 9.43 76.947 9.43C76.347 9.43 75.639 9.616 74.823 9.988ZM76.893 14.362C77.589 14.362 78.111 14.116 78.459 13.624V12.796C78.111 12.532 77.637 12.4 77.037 12.4C76.665 12.4 76.353 12.49 76.101 12.67C75.861 12.838 75.741 13.084 75.741 13.408C75.741 13.708 75.849 13.942 76.065 14.11C76.281 14.278 76.557 14.362 76.893 14.362ZM94.0075 7.9L90.8935 11.752L94.3855 16H91.6855L88.4815 11.914L91.3975 7.9H94.0075ZM86.3395 16V7.9H88.4095V16H86.3395ZM95.813 15.01C95.009 14.206 94.607 13.186 94.607 11.95C94.607 10.714 95.009 9.7 95.813 8.908C96.629 8.104 97.697 7.702 99.017 7.702C100.337 7.702 101.399 8.104 102.203 8.908C103.019 9.7 103.427 10.714 103.427 11.95C103.427 13.186 103.019 14.206 102.203 15.01C101.399 15.802 100.337 16.198 99.017 16.198C97.697 16.198 96.629 15.802 95.813 15.01ZM96.821 11.95C96.821 12.622 97.025 13.18 97.433 13.624C97.853 14.056 98.381 14.272 99.017 14.272C99.665 14.272 100.193 14.062 100.601 13.642C101.021 13.21 101.231 12.646 101.231 11.95C101.231 11.278 101.021 10.726 100.601 10.294C100.181 9.862 99.653 9.646 99.017 9.646C98.393 9.646 97.871 9.862 97.451 10.294C97.031 10.714 96.821 11.266 96.821 11.95ZM110.834 16V12.904H107.288V16H105.218V7.9H107.288V10.96H110.834V7.9H112.904V16H110.834ZM114.357 9.97V7.9H121.737V9.97H119.091V16H117.021V9.97H114.357ZM123.848 9.988L123.326 8.476C124.202 7.96 125.156 7.702 126.188 7.702C127.34 7.702 128.168 7.984 128.672 8.548C129.176 9.112 129.428 9.952 129.428 11.068V16H127.628V15.064C127.136 15.76 126.338 16.108 125.234 16.108C124.478 16.108 123.866 15.886 123.398 15.442C122.93 14.998 122.696 14.392 122.696 13.624C122.696 12.772 122.972 12.124 123.524 11.68C124.076 11.224 124.784 10.996 125.648 10.996C126.392 10.996 127.004 11.17 127.484 11.518C127.508 10.81 127.406 10.288 127.178 9.952C126.95 9.604 126.548 9.43 125.972 9.43C125.372 9.43 124.664 9.616 123.848 9.988ZM125.918 14.362C126.614 14.362 127.136 14.116 127.484 13.624V12.796C127.136 12.532 126.662 12.4 126.062 12.4C125.69 12.4 125.378 12.49 125.126 12.67C124.886 12.838 124.766 13.084 124.766 13.408C124.766 13.708 124.874 13.942 125.09 14.11C125.306 14.278 125.582 14.362 125.918 14.362ZM139.218 7.9L136.104 11.752L139.596 16H136.896L133.692 11.914L136.608 7.9H139.218ZM131.55 16V7.9H133.62V16H131.55ZM139.968 9.97V7.9H147.348V9.97H144.702V16H142.632V9.97H139.968ZM149.286 15.01C148.482 14.206 148.08 13.186 148.08 11.95C148.08 10.714 148.482 9.7 149.286 8.908C150.102 8.104 151.17 7.702 152.49 7.702C153.81 7.702 154.872 8.104 155.676 8.908C156.492 9.7 156.9 10.714 156.9 11.95C156.9 13.186 156.492 14.206 155.676 15.01C154.872 15.802 153.81 16.198 152.49 16.198C151.17 16.198 150.102 15.802 149.286 15.01ZM150.294 11.95C150.294 12.622 150.498 13.18 150.906 13.624C151.326 14.056 151.854 14.272 152.49 14.272C153.138 14.272 153.666 14.062 154.074 13.642C154.494 13.21 154.704 12.646 154.704 11.95C154.704 11.278 154.494 10.726 154.074 10.294C153.654 9.862 153.126 9.646 152.49 9.646C151.866 9.646 151.344 9.862 150.924 10.294C150.504 10.714 150.294 11.266 150.294 11.95ZM158.691 16V7.9C158.835 7.9 159.099 7.894 159.483 7.882C159.879 7.858 160.281 7.84 160.689 7.828C161.109 7.816 161.505 7.81 161.877 7.81C164.325 7.81 165.549 8.518 165.549 9.934C165.549 10.402 165.399 10.804 165.099 11.14C164.811 11.476 164.457 11.674 164.037 11.734V11.77C165.189 12.046 165.765 12.67 165.765 13.642C165.765 15.274 164.481 16.09 161.913 16.09C161.553 16.09 160.983 16.072 160.203 16.036C159.423 16.012 158.919 16 158.691 16ZM162.057 12.562H160.761V14.362C161.577 14.41 162.033 14.434 162.129 14.434C162.585 14.434 162.939 14.35 163.191 14.182C163.455 14.014 163.587 13.786 163.587 13.498C163.587 12.874 163.077 12.562 162.057 12.562ZM162.057 9.484C161.481 9.484 161.049 9.496 160.761 9.52V11.302H162.111C162.471 11.302 162.765 11.224 162.993 11.068C163.233 10.9 163.353 10.666 163.353 10.366C163.353 9.778 162.921 9.484 162.057 9.484Z" fill="#005BFE"/>
<path fill-rule="evenodd" clip-rule="evenodd" d="M1.61967 0.0527838C1.2459 0.133671 0.940376 0.306712 0.634031 0.610909C0.321235 0.921514 0.153771 1.21819 0.0701915 1.60981C-0.0243015 2.05269 -0.022959 19.3872 0.0716206 19.8305C0.23891 20.6147 0.806821 21.3433 1.52522 21.6954C2.202 22.0271 1.62751 22.0069 10.0492 21.9945C17.5814 21.9834 17.5823 21.9834 17.7018 21.8947C17.7676 21.8459 17.8616 21.7526 17.9107 21.6873L18 21.5685V12.3724V3.17625L17.9107 3.05748C17.8616 2.99216 17.7677 2.89884 17.7019 2.85008C17.5893 2.76648 17.5157 2.76067 16.4183 2.74868L15.254 2.73599L15.2413 1.57992C15.2292 0.490159 15.2233 0.417098 15.1391 0.30525C15.09 0.239972 14.9961 0.146701 14.9303 0.0979361C14.8108 0.0093946 14.8018 0.00926559 8.3505 0.00174021C3.03793 -0.00449511 1.84222 0.00457835 1.61967 0.0527838ZM13.8643 2.05187V2.7399H7.90839C1.39855 2.7399 1.78207 2.75521 1.55436 2.48649C1.26807 2.14858 1.39574 1.59983 1.80151 1.42434C1.90917 1.37777 3.03711 1.36689 7.89895 1.36551L13.8643 1.36383V2.05187ZM9.59593 5.55672C10.6273 5.77367 11.502 6.64231 11.7205 7.66641C12.1348 9.60826 10.3878 11.343 8.43222 10.9316C7.64267 10.7656 6.90881 10.2016 6.55435 9.4885C6.14096 8.65683 6.14096 7.83153 6.55435 6.99987C7.09979 5.90259 8.3715 5.29918 9.59593 5.55672ZM11.2417 12.4729C12.5361 12.8487 13.4114 13.7251 13.7664 15.0007C13.8299 15.2292 13.8427 15.4561 13.8427 16.3576C13.8427 17.3839 13.838 17.4464 13.7534 17.559C13.7042 17.6244 13.6103 17.7177 13.5445 17.7665C13.4255 17.8547 13.4014 17.8552 9.01407 17.8552C4.62673 17.8552 4.60261 17.8547 4.48365 17.7665C4.19246 17.5506 4.18687 17.5284 4.17133 16.5298C4.15595 15.5425 4.19359 15.1766 4.36066 14.6888C4.68173 13.7514 5.53329 12.8911 6.44145 12.5865C7.04479 12.3842 7.15383 12.3761 9.12234 12.3875C10.7413 12.3968 11.0181 12.408 11.2417 12.4729Z" fill="#005BFE"/>
</svg>
